<?xml version="1.0" encoding="UTF-8" standalone="no"?>
<!DOCTYPE svg PUBLIC "-//W3C//DTD SVG 1.1//EN" "http://www.w3.org/Graphics/SVG/1.1/DTD/svg11.dtd">
<svg version="1.1" xmlns="http://www.w3.org/2000/svg" xmlns:xlink="http://www.w3.org/1999/xlink" preserveAspectRatio="xMidYMid meet" viewBox="0 0 1920 1080" width="1920" height="1080"><defs><path d="M0 1080L1920 1080L1920 0L0 0L0 1080Z" id="d1R7p7NnZ2"></path><linearGradient id="gradienta3Zrx3cxa" gradientUnits="userSpaceOnUse" x1="1920" y1="0" x2="0" y2="1080"><stop style="stop-color: #7be99a;stop-opacity: 1" offset="0%"></stop><stop style="stop-color: #1ab3b2;stop-opacity: 1" offset="100%"></stop></linearGradient><path d="M1974.19 116.66C1974.19 247.17 1868.23 353.12 1737.73 353.12C1607.23 353.12 1501.28 247.17 1501.28 116.66C1501.28 -13.84 1607.23 -119.79 1737.73 -119.79C1868.23 -119.79 1974.19 -13.84 1974.19 116.66Z" id="b12oiG4uvQ"></path><path d="M166.69 1050.65C166.69 1148.13 87.54 1227.27 -9.94 1227.27C-107.43 1227.27 -186.57 1148.13 -186.57 1050.65C-186.57 953.16 -107.43 874.02 -9.94 874.02C87.54 874.02 166.69 953.16 166.69 1050.65Z" id="a26cZgIZJ"></path><path d="M1230.81 295.7C1230.81 426.21 1124.86 532.16 994.36 532.16C863.86 532.16 757.91 426.21 757.91 295.7C757.91 165.2 863.86 59.25 994.36 59.25C1124.86 59.25 1230.81 165.2 1230.81 295.7Z" id="bl2ZvTjTz"></path><path d="M1767.91 778.15C1767.91 1028.93 1564.3 1232.53 1313.52 1232.53C1062.73 1232.53 859.13 1028.93 859.13 778.15C859.13 527.36 1062.73 323.76 1313.52 323.76C1564.3 323.76 1767.91 527.36 1767.91 778.15Z" id="a8hoZPsrm"></path></defs><g><g><g><use xlink:href="#d1R7p7NnZ2" opacity="1" fill="url(#gradienta3Zrx3cxa)"></use></g><g><use xlink:href="#b12oiG4uvQ" opacity="1" fill="#ffffff" fill-opacity="0.2"></use></g><g><use xlink:href="#a26cZgIZJ" opacity="1" fill="#ffffff" fill-opacity="0.2"></use></g><g><use xlink:href="#bl2ZvTjTz" opacity="0.25" fill="#ffffff" fill-opacity="0.2"></use></g><g><use xlink:href="#a8hoZPsrm" opacity="0.25" fill="#ffffff" fill-opacity="0.2"></use></g></g></g></svg>