<svg xmlns="http://www.w3.org/2000/svg" width="283" height="289" viewBox="0 0 283 289">
    <path fill="#F5A623" fill-rule="nonzero" d="M159.697 268.742c0 4.605 1.65 9.539 4.289 13.157H34.975C15.508 281.9 0 266.44 0 247.032V72.695c0-1.973.33-4.276 1.32-6.25.99-1.973 1.98-3.618 3.63-5.263L64.67 4.276c1.32-1.316 3.3-2.631 4.95-3.29C71.6.33 73.58 0 75.559 0h114.493c19.467 0 34.975 15.46 34.975 34.867V139.47c-2.64-1.315-5.61-1.973-8.579-1.973-2.64 0-5.279.658-7.919 1.644V34.867c0-10.197-8.248-18.42-18.477-18.42H80.838V43.09c0 19.078-15.838 34.867-34.975 34.867H16.498v169.074c0 10.197 8.248 18.42 18.477 18.42h124.722v3.29zM281.31 234.52c2.972 4.609 1.321 9.875-3.963 11.85-4.954 1.976-9.577 3.622-14.53 5.597-.992.329-1.652.987-1.652 1.975-.33 5.267-.66 10.534-.66 15.8-.33 5.268-4.624 8.56-9.908 7.243-5.284-1.317-10.238-2.634-15.522-4.28-.99-.329-1.651 0-2.312.659-3.302 4.28-6.605 8.23-9.907 12.18-3.633 4.608-8.917 4.608-12.55 0-3.302-3.95-6.604-8.23-9.907-12.18-.66-.659-1.321-.988-2.312-.659l-14.86 3.95c-6.276 1.976-10.569-2.633-10.569-7.9 0-4.938-.66-10.205-.66-15.142 0-.988-.33-1.646-1.321-1.975-4.954-1.976-10.238-3.95-15.192-5.597-4.954-1.975-6.605-6.912-3.963-11.192 2.972-4.608 5.945-9.217 8.917-13.496.66-.988.66-1.646 0-2.634-2.972-4.28-5.945-8.888-8.587-13.167-2.972-4.609-1.32-9.547 3.633-11.85 4.954-1.976 9.908-3.951 14.861-5.597.991-.33 1.321-.988 1.321-1.975.33-5.267.33-10.534.66-15.801.331-5.596 4.624-8.559 11.56-6.913 3.632.988 8.586 2.304 13.54 3.621 1.32.33 1.981.33 2.972-.987 3.303-3.95 6.275-7.9 9.577-12.18 3.633-4.609 8.917-4.28 12.55 0 3.302 3.95 6.605 7.9 9.907 12.18.66.987 1.321 1.316 2.642.987 4.954-1.317 10.238-2.963 15.192-4.28 5.284-1.316 9.907 1.647 10.237 7.243l.991 15.8c0 .988.33 1.647 1.321 1.976 4.954 1.646 9.577 3.62 14.531 5.267 5.614 1.975 7.266 7.242 3.963 12.18-2.642 4.279-5.614 8.558-8.586 12.838-.66.987-.66 1.646 0 2.633 2.972 4.938 5.944 9.217 8.586 13.826zm-71.54-38.895c0 4.931 3.973 8.876 8.939 8.876 4.634 0 8.606-3.945 8.606-8.876 0-4.93-3.972-8.876-8.606-8.876-4.966 0-8.938 3.945-8.938 8.876zm19.808 48.661c-.991.33-1.652.987-2.313 1.316-.992.329-2.314.658-3.306.987-1.322 0-2.314-.658-2.644-1.974-.33-.987-.33-1.973-.33-2.96.33-1.974.66-4.276.99-6.25.992-6.25 2.315-12.5 3.306-18.749.33-1.645.661-3.29.661-4.934 0-1.974-1.322-2.96-3.305-2.96h-18.511c-1.322.329-1.983.986-1.983 1.644 0 .987.33 1.645 1.653 2.303.991.329 1.983.329 2.975.658 2.313.329 2.974.987 2.974 3.289v.987c-.991 5.592-1.983 10.855-2.974 16.446-.662 3.29-.992 6.25-1.323 9.54-.66 4.604 3.967 8.88 7.272 9.538 1.984.33 4.298.33 6.28.33 4.628 0 8.265-1.974 11.57-5.264.661-.657.992-1.315 1.322-1.973 0-1.316-.991-2.303-2.314-1.974z"/>
</svg>
